# xmcd CD database file
#
# Track frame offsets:
#	150
#	18092
#	31565
#	49061
#	58449
#	67359
#	80750
#	98024
#	113274
#	133441
#	154370
#	168378
#	182871
#	197192
#	229942
#	260622
#	286662
#	309796
#	323050
#	338776
#
# Disc length: 4679 seconds
#
# Revision: 0
# Processed by: cddbd v1.5.2PL0 Copyright (c) Steve Scherf et al.
# Submitted via: CDex 1.70beta2
#
DISCID=1c124514
DTITLE=Směs - Massive hits! [CD 2)
DYEAR=2013
DGENRE=Jazz
TTITLE0=Louis Armstrong - It Don`t Mean A Thing
TTITLE1=Woody Herman - Woodchopper`s Ball
TTITLE2=Benny Goodman - One O`clock Jump
TTITLE3=Joe Loss - March Of The Mods
TTITLE4=Tommy Watt - Poor Little Rich Girl
TTITLE5=Harry James - Two O`clock Jump
TTITLE6=Count Basie - Whirly Bird
TTITLE7=Dinah Shore - It Had To Be You
TTITLE8=Lou Rawls - God Bless The Child
TTITLE9=Miles Davis -How Deep Is The Ocean
TTITLE10=Stan Getz - Autumn Leaves 
TTITLE11=Nina Simone - Willow Weep For Me 
TTITLE12=Mel Torme - Blue Moon
TTITLE13=Horace Silver - Song For My Father
TTITLE14=Herbie Hancock - Watermelon Man
TTITLE15=Jimmy Smith - On The Sunny Side Of The Street
TTITLE16=Lee Morgan - The Sidewinder
TTITLE17=Lionel Hampton - Flying Home
TTITLE18=Wes Montgomery - Baubles, Bangles And Beads
TTITLE19=Stan Kenton - The Peanut Vendor
EXTD=YEAR: 2013
EXTT0=
EXTT1=
EXTT2=
EXTT3=
EXTT4=
EXTT5=
EXTT6=
EXTT7=
EXTT8=
EXTT9=
EXTT10=
EXTT11=
EXTT12=
EXTT13=
EXTT14=
EXTT15=
EXTT16=
EXTT17=
EXTT18=
EXTT19=
PLAYORDER=
